  0
SECTION
  2
HEADER
  9
$ACADVER
  1
AC1009
  9
$EXTMIN
 10
0.0
 20
0.0
 30
0.0
  9
$EXTMAX
 10
1000.0
 20
1000.0
 30
0.0
  9
$FILLMODE
 70
 0
  9
$SPLFRAME
 70
 1
  0
ENDSEC
  0
SECTION
  2
TABLES
  0
TABLE
  2
LAYER
 70
1
  0
LAYER
  2
0
 70
     0
 62
     7
  6
CONTINUOUS
  0
ENDTAB
  0
ENDSEC
  0
SECTION
  2
ENTITIES
  0
LINE
  8
0
 62
     0
 10
96.3443
 20
99.3429
 30
0.0
 11
96.581
 21
99.3345
 31
0.0
  0
LINE
  8
0
 62
     0
 10
96.581
 20
99.3345
 30
0.0
 11
96.8142
 21
99.3069
 31
0.0
  0
LINE
  8
0
 62
     0
 10
96.8142
 20
99.3069
 30
0.0
 11
97.0456
 21
99.2614
 31
0.0
  0
LINE
  8
0
 62
     0
 10
97.0456
 20
99.2614
 30
0.0
 11
97.2728
 21
99.1969
 31
0.0
  0
LINE
  8
0
 62
     0
 10
97.2728
 20
99.1969
 30
0.0
 11
97.4933
 21
99.1154
 31
0.0
  0
LINE
  8
0
 62
     0
 10
97.4933
 20
99.1154
 30
0.0
 11
97.7071
 21
99.0177
 31
0.0
  0
LINE
  8
0
 62
     0
 10
97.7071
 20
99.0177
 30
0.0
 11
97.9124
 21
98.9005
 31
0.0
  0
LINE
  8
0
 62
     0
 10
97.9124
 20
98.9005
 30
0.0
 11
98.1093
 21
98.7707
 31
0.0
  0
LINE
  8
0
 62
     0
 10
98.1093
 20
98.7707
 30
0.0
 11
98.2941
 21
98.6247
 31
0.0
  0
LINE
  8
0
 62
     0
 10
98.2941
 20
98.6247
 30
0.0
 11
98.4663
 21
98.4649
 31
0.0
  0
LINE
  8
0
 62
     0
 10
98.4663
 20
98.4649
 30
0.0
 11
98.6261
 21
98.2927
 31
0.0
  0
LINE
  8
0
 62
     0
 10
98.6261
 20
98.2927
 30
0.0
 11
98.7721
 21
98.1068
 31
0.0
  0
LINE
  8
0
 62
     0
 10
98.7721
 20
98.1068
 30
0.0
 11
98.903
 21
97.911
 31
0.0
  0
LINE
  8
0
 62
     0
 10
98.903
 20
97.911
 30
0.0
 11
99.0191
 21
97.7057
 31
0.0
  0
LINE
  8
0
 62
     0
 10
99.0191
 20
97.7057
 30
0.0
 11
99.1168
 21
97.4919
 31
0.0
  0
LINE
  8
0
 62
     0
 10
99.1168
 20
97.4919
 30
0.0
 11
99.1979
 21
97.2714
 31
0.0
  0
LINE
  8
0
 62
     0
 10
99.1979
 20
97.2714
 30
0.0
 11
99.2628
 21
97.0442
 31
0.0
  0
LINE
  8
0
 62
     0
 10
99.2628
 20
97.0442
 30
0.0
 11
99.3084
 21
96.8128
 31
0.0
  0
LINE
  8
0
 62
     0
 10
99.3084
 20
96.8128
 30
0.0
 11
99.3359
 21
96.5786
 31
0.0
  0
LINE
  8
0
 62
     0
 10
99.3359
 20
96.5786
 30
0.0
 11
99.3454
 21
96.3429
 31
0.0
  0
LINE
  8
0
 62
     0
 10
99.3454
 20
96.3429
 30
0.0
 11
99.344
 21
3.0937
 31
0.0
  0
LINE
  8
0
 62
     0
 10
99.344
 20
3.0937
 30
0.0
 11
99.3359
 21
2.85667
 31
0.0
  0
LINE
  8
0
 62
     0
 10
99.3359
 20
2.85667
 30
0.0
 11
99.3084
 21
2.62378
 31
0.0
  0
LINE
  8
0
 62
     0
 10
99.3084
 20
2.62378
 30
0.0
 11
99.2628
 21
2.39227
 31
0.0
  0
LINE
  8
0
 62
     0
 10
99.2628
 20
2.39227
 30
0.0
 11
99.1979
 21
2.1649
 31
0.0
  0
LINE
  8
0
 62
     0
 10
99.1979
 20
2.1649
 30
0.0
 11
99.1168
 21
1.94441
 31
0.0
  0
LINE
  8
0
 62
     0
 10
99.1168
 20
1.94441
 30
0.0
 11
99.0191
 21
1.73082
 31
0.0
  0
LINE
  8
0
 62
     0
 10
99.0191
 20
1.73082
 30
0.0
 11
98.903
 21
1.52549
 31
0.0
  0
LINE
  8
0
 62
     0
 10
98.903
 20
1.52549
 30
0.0
 11
98.7721
 21
1.32843
 31
0.0
  0
LINE
  8
0
 62
     0
 10
98.7721
 20
1.32843
 30
0.0
 11
98.6261
 21
1.14377
 31
0.0
  0
LINE
  8
0
 62
     0
 10
98.6261
 20
1.14377
 30
0.0
 11
98.4663
 21
0.971518
 31
0.0
  0
LINE
  8
0
 62
     0
 10
98.4663
 20
0.971518
 30
0.0
 11
98.2941
 21
0.811664
 31
0.0
  0
LINE
  8
0
 62
     0
 10
98.2941
 20
0.811664
 30
0.0
 11
98.1093
 21
0.665593
 31
0.0
  0
LINE
  8
0
 62
     0
 10
98.1093
 20
0.665593
 30
0.0
 11
97.9124
 21
0.534681
 31
0.0
  0
LINE
  8
0
 62
     0
 10
97.9124
 20
0.534681
 30
0.0
 11
97.7071
 21
0.418924
 31
0.0
  0
LINE
  8
0
 62
     0
 10
97.7071
 20
0.418924
 30
0.0
 11
97.4933
 21
0.321083
 31
0.0
  0
LINE
  8
0
 62
     0
 10
97.4933
 20
0.321083
 30
0.0
 11
97.2728
 21
0.239779
 31
0.0
  0
LINE
  8
0
 62
     0
 10
97.2728
 20
0.239779
 30
0.0
 11
97.0456
 21
0.175011
 31
0.0
  0
LINE
  8
0
 62
     0
 10
97.0456
 20
0.175011
 30
0.0
 11
96.8142
 21
0.129536
 31
0.0
  0
LINE
  8
0
 62
     0
 10
96.8142
 20
0.129536
 30
0.0
 11
96.581
 21
0.101975
 31
0.0
  0
LINE
  8
0
 62
     0
 10
96.581
 20
0.101975
 30
0.0
 11
96.3443
 21
0.0923286
 31
0.0
  0
LINE
  8
0
 62
     0
 10
96.3443
 20
0.0923286
 30
0.0
 11
3.09507
 21
0.0937066
 31
0.0
  0
LINE
  8
0
 62
     0
 10
3.09507
 20
0.0937066
 30
0.0
 11
2.85943
 21
0.101975
 31
0.0
  0
LINE
  8
0
 62
     0
 10
2.85943
 20
0.101975
 30
0.0
 11
2.62516
 21
0.129536
 31
0.0
  0
LINE
  8
0
 62
     0
 10
2.62516
 20
0.129536
 30
0.0
 11
2.39365
 21
0.175011
 31
0.0
  0
LINE
  8
0
 62
     0
 10
2.39365
 20
0.175011
 30
0.0
 11
2.16628
 21
0.239779
 31
0.0
  0
LINE
  8
0
 62
     0
 10
2.16628
 20
0.239779
 30
0.0
 11
1.94579
 21
0.321083
 31
0.0
  0
LINE
  8
0
 62
     0
 10
1.94579
 20
0.321083
 30
0.0
 11
1.7322
 21
0.418924
 31
0.0
  0
LINE
  8
0
 62
     0
 10
1.7322
 20
0.418924
 30
0.0
 11
1.52687
 21
0.534681
 31
0.0
  0
LINE
  8
0
 62
     0
 10
1.52687
 20
0.534681
 30
0.0
 11
1.33119
 21
0.665593
 31
0.0
  0
LINE
  8
0
 62
     0
 10
1.33119
 20
0.665593
 30
0.0
 11
1.14515
 21
0.811664
 31
0.0
  0
LINE
  8
0
 62
     0
 10
1.14515
 20
0.811664
 30
0.0
 11
0.972894
 21
0.971518
 31
0.0
  0
LINE
  8
0
 62
     0
 10
0.972894
 20
0.971518
 30
0.0
 11
0.813043
 21
1.14377
 31
0.0
  0
LINE
  8
0
 62
     0
 10
0.813043
 20
1.14377
 30
0.0
 11
0.666972
 21
1.32843
 31
0.0
  0
LINE
  8
0
 62
     0
 10
0.666972
 20
1.32843
 30
0.0
 11
0.537436
 21
1.52549
 31
0.0
  0
LINE
  8
0
 62
     0
 10
0.537436
 20
1.52549
 30
0.0
 11
0.420303
 21
1.73082
 31
0.0
  0
LINE
  8
0
 62
     0
 10
0.420303
 20
1.73082
 30
0.0
 11
0.322461
 21
1.94441
 31
0.0
  0
LINE
  8
0
 62
     0
 10
0.322461
 20
1.94441
 30
0.0
 11
0.241157
 21
2.1649
 31
0.0
  0
LINE
  8
0
 62
     0
 10
0.241157
 20
2.1649
 30
0.0
 11
0.176389
 21
2.39227
 31
0.0
  0
LINE
  8
0
 62
     0
 10
0.176389
 20
2.39227
 30
0.0
 11
0.130914
 21
2.62378
 31
0.0
  0
LINE
  8
0
 62
     0
 10
0.130914
 20
2.62378
 30
0.0
 11
0.103353
 21
2.85667
 31
0.0
  0
LINE
  8
0
 62
     0
 10
0.103353
 20
2.85667
 30
0.0
 11
0.0937066
 21
3.0937
 31
0.0
  0
LINE
  8
0
 62
     0
 10
0.0937066
 20
3.0937
 30
0.0
 11
0.0950846
 21
96.3429
 31
0.0
  0
LINE
  8
0
 62
     0
 10
0.0950846
 20
96.3429
 30
0.0
 11
0.103353
 21
96.5786
 31
0.0
  0
LINE
  8
0
 62
     0
 10
0.103353
 20
96.5786
 30
0.0
 11
0.130914
 21
96.8128
 31
0.0
  0
LINE
  8
0
 62
     0
 10
0.130914
 20
96.8128
 30
0.0
 11
0.176389
 21
97.0442
 31
0.0
  0
LINE
  8
0
 62
     0
 10
0.176389
 20
97.0442
 30
0.0
 11
0.241157
 21
97.2714
 31
0.0
  0
LINE
  8
0
 62
     0
 10
0.241157
 20
97.2714
 30
0.0
 11
0.322461
 21
97.4919
 31
0.0
  0
LINE
  8
0
 62
     0
 10
0.322461
 20
97.4919
 30
0.0
 11
0.420303
 21
97.7057
 31
0.0
  0
LINE
  8
0
 62
     0
 10
0.420303
 20
97.7057
 30
0.0
 11
0.537436
 21
97.911
 31
0.0
  0
LINE
  8
0
 62
     0
 10
0.537436
 20
97.911
 30
0.0
 11
0.666972
 21
98.1068
 31
0.0
  0
LINE
  8
0
 62
     0
 10
0.666972
 20
98.1068
 30
0.0
 11
0.813043
 21
98.2927
 31
0.0
  0
LINE
  8
0
 62
     0
 10
0.813043
 20
98.2927
 30
0.0
 11
0.972894
 21
98.4649
 31
0.0
  0
LINE
  8
0
 62
     0
 10
0.972894
 20
98.4649
 30
0.0
 11
1.14515
 21
98.6247
 31
0.0
  0
LINE
  8
0
 62
     0
 10
1.14515
 20
98.6247
 30
0.0
 11
1.33119
 21
98.7707
 31
0.0
  0
LINE
  8
0
 62
     0
 10
1.33119
 20
98.7707
 30
0.0
 11
1.52687
 21
98.9005
 31
0.0
  0
LINE
  8
0
 62
     0
 10
1.52687
 20
98.9005
 30
0.0
 11
1.7322
 21
99.0177
 31
0.0
  0
LINE
  8
0
 62
     0
 10
1.7322
 20
99.0177
 30
0.0
 11
1.94579
 21
99.1154
 31
0.0
  0
LINE
  8
0
 62
     0
 10
1.94579
 20
99.1154
 30
0.0
 11
2.16628
 21
99.1969
 31
0.0
  0
LINE
  8
0
 62
     0
 10
2.16628
 20
99.1969
 30
0.0
 11
2.39365
 21
99.2614
 31
0.0
  0
LINE
  8
0
 62
     0
 10
2.39365
 20
99.2614
 30
0.0
 11
2.62516
 21
99.3069
 31
0.0
  0
LINE
  8
0
 62
     0
 10
2.62516
 20
99.3069
 30
0.0
 11
2.85943
 21
99.3345
 31
0.0
  0
LINE
  8
0
 62
     0
 10
2.85943
 20
99.3345
 30
0.0
 11
3.09507
 21
99.344
 31
0.0
  0
LINE
  8
0
 62
     0
 10
3.09507
 20
99.344
 30
0.0
 11
96.3443
 21
99.3429
 31
0.0
  0
LINE
  8
0
 62
     0
 10
4.6192
 20
18.6187
 30
0.0
 11
4.6192
 21
17.6182
 31
0.0
  0
LINE
  8
0
 62
     0
 10
4.6192
 20
17.6182
 30
0.0
 11
3.81854
 21
17.6182
 31
0.0
  0
LINE
  8
0
 62
     0
 10
3.81854
 20
17.6182
 30
0.0
 11
3.81854
 21
14.519
 31
0.0
  0
LINE
  8
0
 62
     0
 10
3.81854
 20
14.519
 30
0.0
 11
4.6192
 21
14.519
 31
0.0
  0
LINE
  8
0
 62
     0
 10
4.6192
 20
14.519
 30
0.0
 11
4.6192
 21
8.71746
 31
0.0
  0
LINE
  8
0
 62
     0
 10
4.6192
 20
8.71746
 30
0.0
 11
3.81854
 21
8.71746
 31
0.0
  0
LINE
  8
0
 62
     0
 10
3.81854
 20
8.71746
 30
0.0
 11
3.81854
 21
5.61827
 31
0.0
  0
LINE
  8
0
 62
     0
 10
3.81854
 20
5.61827
 30
0.0
 11
4.6192
 21
5.61827
 31
0.0
  0
LINE
  8
0
 62
     0
 10
4.6192
 20
5.61827
 30
0.0
 11
4.6192
 21
4.61779
 31
0.0
  0
LINE
  8
0
 62
     0
 10
4.6192
 20
4.61779
 30
0.0
 11
18.6201
 21
4.61779
 31
0.0
  0
LINE
  8
0
 62
     0
 10
18.6201
 20
4.61779
 30
0.0
 11
18.6201
 21
5.61827
 31
0.0
  0
LINE
  8
0
 62
     0
 10
18.6201
 20
5.61827
 30
0.0
 11
19.4193
 21
5.61827
 31
0.0
  0
LINE
  8
0
 62
     0
 10
19.4193
 20
5.61827
 30
0.0
 11
19.4193
 21
8.71746
 31
0.0
  0
LINE
  8
0
 62
     0
 10
19.4193
 20
8.71746
 30
0.0
 11
18.6201
 21
8.71746
 31
0.0
  0
LINE
  8
0
 62
     0
 10
18.6201
 20
8.71746
 30
0.0
 11
18.6201
 21
14.519
 31
0.0
  0
LINE
  8
0
 62
     0
 10
18.6201
 20
14.519
 30
0.0
 11
19.4193
 21
14.519
 31
0.0
  0
LINE
  8
0
 62
     0
 10
19.4193
 20
14.519
 30
0.0
 11
19.4193
 21
17.6182
 31
0.0
  0
LINE
  8
0
 62
     0
 10
19.4193
 20
17.6182
 30
0.0
 11
18.6201
 21
17.6182
 31
0.0
  0
LINE
  8
0
 62
     0
 10
18.6201
 20
17.6182
 30
0.0
 11
18.6201
 21
18.6187
 31
0.0
  0
LINE
  8
0
 62
     0
 10
18.6201
 20
18.6187
 30
0.0
 11
4.6192
 21
18.6187
 31
0.0
  0
LINE
  8
0
 62
     0
 10
23.6692
 20
18.6187
 30
0.0
 11
23.6692
 21
17.6182
 31
0.0
  0
LINE
  8
0
 62
     0
 10
23.6692
 20
17.6182
 30
0.0
 11
22.8699
 21
17.6182
 31
0.0
  0
LINE
  8
0
 62
     0
 10
22.8699
 20
17.6182
 30
0.0
 11
22.8699
 21
14.519
 31
0.0
  0
LINE
  8
0
 62
     0
 10
22.8699
 20
14.519
 30
0.0
 11
23.6692
 21
14.519
 31
0.0
  0
LINE
  8
0
 62
     0
 10
23.6692
 20
14.519
 30
0.0
 11
23.6692
 21
8.71746
 31
0.0
  0
LINE
  8
0
 62
     0
 10
23.6692
 20
8.71746
 30
0.0
 11
22.8699
 21
8.71746
 31
0.0
  0
LINE
  8
0
 62
     0
 10
22.8699
 20
8.71746
 30
0.0
 11
22.8699
 21
5.61827
 31
0.0
  0
LINE
  8
0
 62
     0
 10
22.8699
 20
5.61827
 30
0.0
 11
23.6692
 21
5.61827
 31
0.0
  0
LINE
  8
0
 62
     0
 10
23.6692
 20
5.61827
 30
0.0
 11
23.6692
 21
4.61779
 31
0.0
  0
LINE
  8
0
 62
     0
 10
23.6692
 20
4.61779
 30
0.0
 11
37.67
 21
4.61779
 31
0.0
  0
LINE
  8
0
 62
     0
 10
37.67
 20
4.61779
 30
0.0
 11
37.67
 21
5.61827
 31
0.0
  0
LINE
  8
0
 62
     0
 10
37.67
 20
5.61827
 30
0.0
 11
38.4694
 21
5.61827
 31
0.0
  0
LINE
  8
0
 62
     0
 10
38.4694
 20
5.61827
 30
0.0
 11
38.4694
 21
8.71746
 31
0.0
  0
LINE
  8
0
 62
     0
 10
38.4694
 20
8.71746
 30
0.0
 11
37.67
 21
8.71746
 31
0.0
  0
LINE
  8
0
 62
     0
 10
37.67
 20
8.71746
 30
0.0
 11
37.67
 21
14.519
 31
0.0
  0
LINE
  8
0
 62
     0
 10
37.67
 20
14.519
 30
0.0
 11
38.4694
 21
14.519
 31
0.0
  0
LINE
  8
0
 62
     0
 10
38.4694
 20
14.519
 30
0.0
 11
38.4694
 21
17.6182
 31
0.0
  0
LINE
  8
0
 62
     0
 10
38.4694
 20
17.6182
 30
0.0
 11
37.67
 21
17.6182
 31
0.0
  0
LINE
  8
0
 62
     0
 10
37.67
 20
17.6182
 30
0.0
 11
37.67
 21
18.6187
 31
0.0
  0
LINE
  8
0
 62
     0
 10
37.67
 20
18.6187
 30
0.0
 11
23.6692
 21
18.6187
 31
0.0
  0
LINE
  8
0
 62
     0
 10
42.7193
 20
18.6187
 30
0.0
 11
42.7193
 21
17.6182
 31
0.0
  0
LINE
  8
0
 62
     0
 10
42.7193
 20
17.6182
 30
0.0
 11
41.9199
 21
17.6182
 31
0.0
  0
LINE
  8
0
 62
     0
 10
41.9199
 20
17.6182
 30
0.0
 11
41.9199
 21
14.519
 31
0.0
  0
LINE
  8
0
 62
     0
 10
41.9199
 20
14.519
 30
0.0
 11
42.7193
 21
14.519
 31
0.0
  0
LINE
  8
0
 62
     0
 10
42.7193
 20
14.519
 30
0.0
 11
42.7193
 21
8.71746
 31
0.0
  0
LINE
  8
0
 62
     0
 10
42.7193
 20
8.71746
 30
0.0
 11
41.9199
 21
8.71746
 31
0.0
  0
LINE
  8
0
 62
     0
 10
41.9199
 20
8.71746
 30
0.0
 11
41.9199
 21
5.61827
 31
0.0
  0
LINE
  8
0
 62
     0
 10
41.9199
 20
5.61827
 30
0.0
 11
42.7193
 21
5.61827
 31
0.0
  0
LINE
  8
0
 62
     0
 10
42.7193
 20
5.61827
 30
0.0
 11
42.7193
 21
4.61779
 31
0.0
  0
LINE
  8
0
 62
     0
 10
42.7193
 20
4.61779
 30
0.0
 11
56.72
 21
4.61779
 31
0.0
  0
LINE
  8
0
 62
     0
 10
56.72
 20
4.61779
 30
0.0
 11
56.72
 21
5.61827
 31
0.0
  0
LINE
  8
0
 62
     0
 10
56.72
 20
5.61827
 30
0.0
 11
57.5194
 21
5.61827
 31
0.0
  0
LINE
  8
0
 62
     0
 10
57.5194
 20
5.61827
 30
0.0
 11
57.5194
 21
8.71746
 31
0.0
  0
LINE
  8
0
 62
     0
 10
57.5194
 20
8.71746
 30
0.0
 11
56.72
 21
8.71746
 31
0.0
  0
LINE
  8
0
 62
     0
 10
56.72
 20
8.71746
 30
0.0
 11
56.72
 21
14.519
 31
0.0
  0
LINE
  8
0
 62
     0
 10
56.72
 20
14.519
 30
0.0
 11
57.5194
 21
14.519
 31
0.0
  0
LINE
  8
0
 62
     0
 10
57.5194
 20
14.519
 30
0.0
 11
57.5194
 21
17.6182
 31
0.0
  0
LINE
  8
0
 62
     0
 10
57.5194
 20
17.6182
 30
0.0
 11
56.72
 21
17.6182
 31
0.0
  0
LINE
  8
0
 62
     0
 10
56.72
 20
17.6182
 30
0.0
 11
56.72
 21
18.6187
 31
0.0
  0
LINE
  8
0
 62
     0
 10
56.72
 20
18.6187
 30
0.0
 11
42.7193
 21
18.6187
 31
0.0
  0
LINE
  8
0
 62
     0
 10
61.7693
 20
18.6187
 30
0.0
 11
61.7693
 21
17.6182
 31
0.0
  0
LINE
  8
0
 62
     0
 10
61.7693
 20
17.6182
 30
0.0
 11
60.9699
 21
17.6182
 31
0.0
  0
LINE
  8
0
 62
     0
 10
60.9699
 20
17.6182
 30
0.0
 11
60.9699
 21
14.519
 31
0.0
  0
LINE
  8
0
 62
     0
 10
60.9699
 20
14.519
 30
0.0
 11
61.7693
 21
14.519
 31
0.0
  0
LINE
  8
0
 62
     0
 10
61.7693
 20
14.519
 30
0.0
 11
61.7693
 21
8.71746
 31
0.0
  0
LINE
  8
0
 62
     0
 10
61.7693
 20
8.71746
 30
0.0
 11
60.9699
 21
8.71746
 31
0.0
  0
LINE
  8
0
 62
     0
 10
60.9699
 20
8.71746
 30
0.0
 11
60.9699
 21
5.61827
 31
0.0
  0
LINE
  8
0
 62
     0
 10
60.9699
 20
5.61827
 30
0.0
 11
61.7693
 21
5.61827
 31
0.0
  0
LINE
  8
0
 62
     0
 10
61.7693
 20
5.61827
 30
0.0
 11
61.7693
 21
4.61779
 31
0.0
  0
LINE
  8
0
 62
     0
 10
61.7693
 20
4.61779
 30
0.0
 11
75.77
 21
4.61779
 31
0.0
  0
LINE
  8
0
 62
     0
 10
75.77
 20
4.61779
 30
0.0
 11
75.77
 21
5.61827
 31
0.0
  0
LINE
  8
0
 62
     0
 10
75.77
 20
5.61827
 30
0.0
 11
76.5694
 21
5.61827
 31
0.0
  0
LINE
  8
0
 62
     0
 10
76.5694
 20
5.61827
 30
0.0
 11
76.5694
 21
8.71746
 31
0.0
  0
LINE
  8
0
 62
     0
 10
76.5694
 20
8.71746
 30
0.0
 11
75.77
 21
8.71746
 31
0.0
  0
LINE
  8
0
 62
     0
 10
75.77
 20
8.71746
 30
0.0
 11
75.77
 21
14.519
 31
0.0
  0
LINE
  8
0
 62
     0
 10
75.77
 20
14.519
 30
0.0
 11
76.5694
 21
14.519
 31
0.0
  0
LINE
  8
0
 62
     0
 10
76.5694
 20
14.519
 30
0.0
 11
76.5694
 21
17.6182
 31
0.0
  0
LINE
  8
0
 62
     0
 10
76.5694
 20
17.6182
 30
0.0
 11
75.77
 21
17.6182
 31
0.0
  0
LINE
  8
0
 62
     0
 10
75.77
 20
17.6182
 30
0.0
 11
75.77
 21
18.6187
 31
0.0
  0
LINE
  8
0
 62
     0
 10
75.77
 20
18.6187
 30
0.0
 11
61.7693
 21
18.6187
 31
0.0
  0
LINE
  8
0
 62
     0
 10
80.8193
 20
18.6187
 30
0.0
 11
80.8193
 21
17.6182
 31
0.0
  0
LINE
  8
0
 62
     0
 10
80.8193
 20
17.6182
 30
0.0
 11
80.0199
 21
17.6182
 31
0.0
  0
LINE
  8
0
 62
     0
 10
80.0199
 20
17.6182
 30
0.0
 11
80.0199
 21
14.519
 31
0.0
  0
LINE
  8
0
 62
     0
 10
80.0199
 20
14.519
 30
0.0
 11
80.8193
 21
14.519
 31
0.0
  0
LINE
  8
0
 62
     0
 10
80.8193
 20
14.519
 30
0.0
 11
80.8193
 21
8.71746
 31
0.0
  0
LINE
  8
0
 62
     0
 10
80.8193
 20
8.71746
 30
0.0
 11
80.0199
 21
8.71746
 31
0.0
  0
LINE
  8
0
 62
     0
 10
80.0199
 20
8.71746
 30
0.0
 11
80.0199
 21
5.61827
 31
0.0
  0
LINE
  8
0
 62
     0
 10
80.0199
 20
5.61827
 30
0.0
 11
80.8193
 21
5.61827
 31
0.0
  0
LINE
  8
0
 62
     0
 10
80.8193
 20
5.61827
 30
0.0
 11
80.8193
 21
4.61779
 31
0.0
  0
LINE
  8
0
 62
     0
 10
80.8193
 20
4.61779
 30
0.0
 11
94.82
 21
4.61779
 31
0.0
  0
LINE
  8
0
 62
     0
 10
94.82
 20
4.61779
 30
0.0
 11
94.82
 21
5.61827
 31
0.0
  0
LINE
  8
0
 62
     0
 10
94.82
 20
5.61827
 30
0.0
 11
95.6194
 21
5.61827
 31
0.0
  0
LINE
  8
0
 62
     0
 10
95.6194
 20
5.61827
 30
0.0
 11
95.6194
 21
8.71746
 31
0.0
  0
LINE
  8
0
 62
     0
 10
95.6194
 20
8.71746
 30
0.0
 11
94.82
 21
8.71746
 31
0.0
  0
LINE
  8
0
 62
     0
 10
94.82
 20
8.71746
 30
0.0
 11
94.82
 21
14.519
 31
0.0
  0
LINE
  8
0
 62
     0
 10
94.82
 20
14.519
 30
0.0
 11
95.6194
 21
14.519
 31
0.0
  0
LINE
  8
0
 62
     0
 10
95.6194
 20
14.519
 30
0.0
 11
95.6194
 21
17.6182
 31
0.0
  0
LINE
  8
0
 62
     0
 10
95.6194
 20
17.6182
 30
0.0
 11
94.82
 21
17.6182
 31
0.0
  0
LINE
  8
0
 62
     0
 10
94.82
 20
17.6182
 30
0.0
 11
94.82
 21
18.6187
 31
0.0
  0
LINE
  8
0
 62
     0
 10
94.82
 20
18.6187
 30
0.0
 11
80.8193
 21
18.6187
 31
0.0
  0
LINE
  8
0
 62
     0
 10
4.6192
 20
37.6686
 30
0.0
 11
4.6192
 21
36.6681
 31
0.0
  0
LINE
  8
0
 62
     0
 10
4.6192
 20
36.6681
 30
0.0
 11
3.81854
 21
36.6681
 31
0.0
  0
LINE
  8
0
 62
     0
 10
3.81854
 20
36.6681
 30
0.0
 11
3.81854
 21
33.569
 31
0.0
  0
LINE
  8
0
 62
     0
 10
3.81854
 20
33.569
 30
0.0
 11
4.6192
 21
33.569
 31
0.0
  0
LINE
  8
0
 62
     0
 10
4.6192
 20
33.569
 30
0.0
 11
4.6192
 21
27.7675
 31
0.0
  0
LINE
  8
0
 62
     0
 10
4.6192
 20
27.7675
 30
0.0
 11
3.81854
 21
27.7675
 31
0.0
  0
LINE
  8
0
 62
     0
 10
3.81854
 20
27.7675
 30
0.0
 11
3.81854
 21
24.6683
 31
0.0
  0
LINE
  8
0
 62
     0
 10
3.81854
 20
24.6683
 30
0.0
 11
4.6192
 21
24.6683
 31
0.0
  0
LINE
  8
0
 62
     0
 10
4.6192
 20
24.6683
 30
0.0
 11
4.6192
 21
23.6678
 31
0.0
  0
LINE
  8
0
 62
     0
 10
4.6192
 20
23.6678
 30
0.0
 11
18.6201
 21
23.6678
 31
0.0
  0
LINE
  8
0
 62
     0
 10
18.6201
 20
23.6678
 30
0.0
 11
18.6201
 21
24.6683
 31
0.0
  0
LINE
  8
0
 62
     0
 10
18.6201
 20
24.6683
 30
0.0
 11
19.4193
 21
24.6683
 31
0.0
  0
LINE
  8
0
 62
     0
 10
19.4193
 20
24.6683
 30
0.0
 11
19.4193
 21
27.7675
 31
0.0
  0
LINE
  8
0
 62
     0
 10
19.4193
 20
27.7675
 30
0.0
 11
18.6201
 21
27.7675
 31
0.0
  0
LINE
  8
0
 62
     0
 10
18.6201
 20
27.7675
 30
0.0
 11
18.6201
 21
33.569
 31
0.0
  0
LINE
  8
0
 62
     0
 10
18.6201
 20
33.569
 30
0.0
 11
19.4193
 21
33.569
 31
0.0
  0
LINE
  8
0
 62
     0
 10
19.4193
 20
33.569
 30
0.0
 11
19.4193
 21
36.6681
 31
0.0
  0
LINE
  8
0
 62
     0
 10
19.4193
 20
36.6681
 30
0.0
 11
18.6201
 21
36.6681
 31
0.0
  0
LINE
  8
0
 62
     0
 10
18.6201
 20
36.6681
 30
0.0
 11
18.6201
 21
37.6686
 31
0.0
  0
LINE
  8
0
 62
     0
 10
18.6201
 20
37.6686
 30
0.0
 11
4.6192
 21
37.6686
 31
0.0
  0
LINE
  8
0
 62
     0
 10
23.6692
 20
37.6686
 30
0.0
 11
23.6692
 21
36.6681
 31
0.0
  0
LINE
  8
0
 62
     0
 10
23.6692
 20
36.6681
 30
0.0
 11
22.8699
 21
36.6681
 31
0.0
  0
LINE
  8
0
 62
     0
 10
22.8699
 20
36.6681
 30
0.0
 11
22.8699
 21
33.569
 31
0.0
  0
LINE
  8
0
 62
     0
 10
22.8699
 20
33.569
 30
0.0
 11
23.6692
 21
33.569
 31
0.0
  0
LINE
  8
0
 62
     0
 10
23.6692
 20
33.569
 30
0.0
 11
23.6692
 21
27.7675
 31
0.0
  0
LINE
  8
0
 62
     0
 10
23.6692
 20
27.7675
 30
0.0
 11
22.8699
 21
27.7675
 31
0.0
  0
LINE
  8
0
 62
     0
 10
22.8699
 20
27.7675
 30
0.0
 11
22.8699
 21
24.6683
 31
0.0
  0
LINE
  8
0
 62
     0
 10
22.8699
 20
24.6683
 30
0.0
 11
23.6692
 21
24.6683
 31
0.0
  0
LINE
  8
0
 62
     0
 10
23.6692
 20
24.6683
 30
0.0
 11
23.6692
 21
23.6678
 31
0.0
  0
LINE
  8
0
 62
     0
 10
23.6692
 20
23.6678
 30
0.0
 11
37.67
 21
23.6678
 31
0.0
  0
LINE
  8
0
 62
     0
 10
37.67
 20
23.6678
 30
0.0
 11
37.67
 21
24.6683
 31
0.0
  0
LINE
  8
0
 62
     0
 10
37.67
 20
24.6683
 30
0.0
 11
38.4694
 21
24.6683
 31
0.0
  0
LINE
  8
0
 62
     0
 10
38.4694
 20
24.6683
 30
0.0
 11
38.4694
 21
27.7675
 31
0.0
  0
LINE
  8
0
 62
     0
 10
38.4694
 20
27.7675
 30
0.0
 11
37.67
 21
27.7675
 31
0.0
  0
LINE
  8
0
 62
     0
 10
37.67
 20
27.7675
 30
0.0
 11
37.67
 21
33.569
 31
0.0
  0
LINE
  8
0
 62
     0
 10
37.67
 20
33.569
 30
0.0
 11
38.4694
 21
33.569
 31
0.0
  0
LINE
  8
0
 62
     0
 10
38.4694
 20
33.569
 30
0.0
 11
38.4694
 21
36.6681
 31
0.0
  0
LINE
  8
0
 62
     0
 10
38.4694
 20
36.6681
 30
0.0
 11
37.67
 21
36.6681
 31
0.0
  0
LINE
  8
0
 62
     0
 10
37.67
 20
36.6681
 30
0.0
 11
37.67
 21
37.6686
 31
0.0
  0
LINE
  8
0
 62
     0
 10
37.67
 20
37.6686
 30
0.0
 11
23.6692
 21
37.6686
 31
0.0
  0
LINE
  8
0
 62
     0
 10
42.7193
 20
37.6686
 30
0.0
 11
42.7193
 21
36.6681
 31
0.0
  0
LINE
  8
0
 62
     0
 10
42.7193
 20
36.6681
 30
0.0
 11
41.9199
 21
36.6681
 31
0.0
  0
LINE
  8
0
 62
     0
 10
41.9199
 20
36.6681
 30
0.0
 11
41.9199
 21
33.569
 31
0.0
  0
LINE
  8
0
 62
     0
 10
41.9199
 20
33.569
 30
0.0
 11
42.7193
 21
33.569
 31
0.0
  0
LINE
  8
0
 62
     0
 10
42.7193
 20
33.569
 30
0.0
 11
42.7193
 21
27.7675
 31
0.0
  0
LINE
  8
0
 62
     0
 10
42.7193
 20
27.7675
 30
0.0
 11
41.9199
 21
27.7675
 31
0.0
  0
LINE
  8
0
 62
     0
 10
41.9199
 20
27.7675
 30
0.0
 11
41.9199
 21
24.6683
 31
0.0
  0
LINE
  8
0
 62
     0
 10
41.9199
 20
24.6683
 30
0.0
 11
42.7193
 21
24.6683
 31
0.0
  0
LINE
  8
0
 62
     0
 10
42.7193
 20
24.6683
 30
0.0
 11
42.7193
 21
23.6678
 31
0.0
  0
LINE
  8
0
 62
     0
 10
42.7193
 20
23.6678
 30
0.0
 11
56.72
 21
23.6678
 31
0.0
  0
LINE
  8
0
 62
     0
 10
56.72
 20
23.6678
 30
0.0
 11
56.72
 21
24.6683
 31
0.0
  0
LINE
  8
0
 62
     0
 10
56.72
 20
24.6683
 30
0.0
 11
57.5194
 21
24.6683
 31
0.0
  0
LINE
  8
0
 62
     0
 10
57.5194
 20
24.6683
 30
0.0
 11
57.5194
 21
27.7675
 31
0.0
  0
LINE
  8
0
 62
     0
 10
57.5194
 20
27.7675
 30
0.0
 11
56.72
 21
27.7675
 31
0.0
  0
LINE
  8
0
 62
     0
 10
56.72
 20
27.7675
 30
0.0
 11
56.72
 21
33.569
 31
0.0
  0
LINE
  8
0
 62
     0
 10
56.72
 20
33.569
 30
0.0
 11
57.5194
 21
33.569
 31
0.0
  0
LINE
  8
0
 62
     0
 10
57.5194
 20
33.569
 30
0.0
 11
57.5194
 21
36.6681
 31
0.0
  0
LINE
  8
0
 62
     0
 10
57.5194
 20
36.6681
 30
0.0
 11
56.72
 21
36.6681
 31
0.0
  0
LINE
  8
0
 62
     0
 10
56.72
 20
36.6681
 30
0.0
 11
56.72
 21
37.6686
 31
0.0
  0
LINE
  8
0
 62
     0
 10
56.72
 20
37.6686
 30
0.0
 11
42.7193
 21
37.6686
 31
0.0
  0
LINE
  8
0
 62
     0
 10
61.7693
 20
37.6686
 30
0.0
 11
61.7693
 21
36.6681
 31
0.0
  0
LINE
  8
0
 62
     0
 10
61.7693
 20
36.6681
 30
0.0
 11
60.9699
 21
36.6681
 31
0.0
  0
LINE
  8
0
 62
     0
 10
60.9699
 20
36.6681
 30
0.0
 11
60.9699
 21
33.569
 31
0.0
  0
LINE
  8
0
 62
     0
 10
60.9699
 20
33.569
 30
0.0
 11
61.7693
 21
33.569
 31
0.0
  0
LINE
  8
0
 62
     0
 10
61.7693
 20
33.569
 30
0.0
 11
61.7693
 21
27.7675
 31
0.0
  0
LINE
  8
0
 62
     0
 10
61.7693
 20
27.7675
 30
0.0
 11
60.9699
 21
27.7675
 31
0.0
  0
LINE
  8
0
 62
     0
 10
60.9699
 20
27.7675
 30
0.0
 11
60.9699
 21
24.6683
 31
0.0
  0
LINE
  8
0
 62
     0
 10
60.9699
 20
24.6683
 30
0.0
 11
61.7693
 21
24.6683
 31
0.0
  0
LINE
  8
0
 62
     0
 10
61.7693
 20
24.6683
 30
0.0
 11
61.7693
 21
23.6678
 31
0.0
  0
LINE
  8
0
 62
     0
 10
61.7693
 20
23.6678
 30
0.0
 11
75.77
 21
23.6678
 31
0.0
  0
LINE
  8
0
 62
     0
 10
75.77
 20
23.6678
 30
0.0
 11
75.77
 21
24.6683
 31
0.0
  0
LINE
  8
0
 62
     0
 10
75.77
 20
24.6683
 30
0.0
 11
76.5694
 21
24.6683
 31
0.0
  0
LINE
  8
0
 62
     0
 10
76.5694
 20
24.6683
 30
0.0
 11
76.5694
 21
27.7675
 31
0.0
  0
LINE
  8
0
 62
     0
 10
76.5694
 20
27.7675
 30
0.0
 11
75.77
 21
27.7675
 31
0.0
  0
LINE
  8
0
 62
     0
 10
75.77
 20
27.7675
 30
0.0
 11
75.77
 21
33.569
 31
0.0
  0
LINE
  8
0
 62
     0
 10
75.77
 20
33.569
 30
0.0
 11
76.5694
 21
33.569
 31
0.0
  0
LINE
  8
0
 62
     0
 10
76.5694
 20
33.569
 30
0.0
 11
76.5694
 21
36.6681
 31
0.0
  0
LINE
  8
0
 62
     0
 10
76.5694
 20
36.6681
 30
0.0
 11
75.77
 21
36.6681
 31
0.0
  0
LINE
  8
0
 62
     0
 10
75.77
 20
36.6681
 30
0.0
 11
75.77
 21
37.6686
 31
0.0
  0
LINE
  8
0
 62
     0
 10
75.77
 20
37.6686
 30
0.0
 11
61.7693
 21
37.6686
 31
0.0
  0
LINE
  8
0
 62
     0
 10
80.8193
 20
37.6686
 30
0.0
 11
80.8193
 21
36.6681
 31
0.0
  0
LINE
  8
0
 62
     0
 10
80.8193
 20
36.6681
 30
0.0
 11
80.0199
 21
36.6681
 31
0.0
  0
LINE
  8
0
 62
     0
 10
80.0199
 20
36.6681
 30
0.0
 11
80.0199
 21
33.569
 31
0.0
  0
LINE
  8
0
 62
     0
 10
80.0199
 20
33.569
 30
0.0
 11
80.8193
 21
33.569
 31
0.0
  0
LINE
  8
0
 62
     0
 10
80.8193
 20
33.569
 30
0.0
 11
80.8193
 21
27.7675
 31
0.0
  0
LINE
  8
0
 62
     0
 10
80.8193
 20
27.7675
 30
0.0
 11
80.0199
 21
27.7675
 31
0.0
  0
LINE
  8
0
 62
     0
 10
80.0199
 20
27.7675
 30
0.0
 11
80.0199
 21
24.6683
 31
0.0
  0
LINE
  8
0
 62
     0
 10
80.0199
 20
24.6683
 30
0.0
 11
80.8193
 21
24.6683
 31
0.0
  0
LINE
  8
0
 62
     0
 10
80.8193
 20
24.6683
 30
0.0
 11
80.8193
 21
23.6678
 31
0.0
  0
LINE
  8
0
 62
     0
 10
80.8193
 20
23.6678
 30
0.0
 11
94.82
 21
23.6678
 31
0.0
  0
LINE
  8
0
 62
     0
 10
94.82
 20
23.6678
 30
0.0
 11
94.82
 21
24.6683
 31
0.0
  0
LINE
  8
0
 62
     0
 10
94.82
 20
24.6683
 30
0.0
 11
95.6194
 21
24.6683
 31
0.0
  0
LINE
  8
0
 62
     0
 10
95.6194
 20
24.6683
 30
0.0
 11
95.6194
 21
27.7675
 31
0.0
  0
LINE
  8
0
 62
     0
 10
95.6194
 20
27.7675
 30
0.0
 11
94.82
 21
27.7675
 31
0.0
  0
LINE
  8
0
 62
     0
 10
94.82
 20
27.7675
 30
0.0
 11
94.82
 21
33.569
 31
0.0
  0
LINE
  8
0
 62
     0
 10
94.82
 20
33.569
 30
0.0
 11
95.6194
 21
33.569
 31
0.0
  0
LINE
  8
0
 62
     0
 10
95.6194
 20
33.569
 30
0.0
 11
95.6194
 21
36.6681
 31
0.0
  0
LINE
  8
0
 62
     0
 10
95.6194
 20
36.6681
 30
0.0
 11
94.82
 21
36.6681
 31
0.0
  0
LINE
  8
0
 62
     0
 10
94.82
 20
36.6681
 30
0.0
 11
94.82
 21
37.6686
 31
0.0
  0
LINE
  8
0
 62
     0
 10
94.82
 20
37.6686
 30
0.0
 11
80.8193
 21
37.6686
 31
0.0
  0
LINE
  8
0
 62
     0
 10
4.6192
 20
56.7186
 30
0.0
 11
4.6192
 21
55.7181
 31
0.0
  0
LINE
  8
0
 62
     0
 10
4.6192
 20
55.7181
 30
0.0
 11
3.81854
 21
55.7181
 31
0.0
  0
LINE
  8
0
 62
     0
 10
3.81854
 20
55.7181
 30
0.0
 11
3.81854
 21
52.6175
 31
0.0
  0
LINE
  8
0
 62
     0
 10
3.81854
 20
52.6175
 30
0.0
 11
4.6192
 21
52.6175
 31
0.0
  0
LINE
  8
0
 62
     0
 10
4.6192
 20
52.6175
 30
0.0
 11
4.6192
 21
46.8175
 31
0.0
  0
LINE
  8
0
 62
     0
 10
4.6192
 20
46.8175
 30
0.0
 11
3.81854
 21
46.8175
 31
0.0
  0
LINE
  8
0
 62
     0
 10
3.81854
 20
46.8175
 30
0.0
 11
3.81854
 21
43.7183
 31
0.0
  0
LINE
  8
0
 62
     0
 10
3.81854
 20
43.7183
 30
0.0
 11
4.6192
 21
43.7183
 31
0.0
  0
LINE
  8
0
 62
     0
 10
4.6192
 20
43.7183
 30
0.0
 11
4.6192
 21
42.7179
 31
0.0
  0
LINE
  8
0
 62
     0
 10
4.6192
 20
42.7179
 30
0.0
 11
18.6201
 21
42.7179
 31
0.0
  0
LINE
  8
0
 62
     0
 10
18.6201
 20
42.7179
 30
0.0
 11
18.6201
 21
43.7183
 31
0.0
  0
LINE
  8
0
 62
     0
 10
18.6201
 20
43.7183
 30
0.0
 11
19.4193
 21
43.7183
 31
0.0
  0
LINE
  8
0
 62
     0
 10
19.4193
 20
43.7183
 30
0.0
 11
19.4193
 21
46.8175
 31
0.0
  0
LINE
  8
0
 62
     0
 10
19.4193
 20
46.8175
 30
0.0
 11
18.6201
 21
46.8175
 31
0.0
  0
LINE
  8
0
 62
     0
 10
18.6201
 20
46.8175
 30
0.0
 11
18.6201
 21
52.6175
 31
0.0
  0
LINE
  8
0
 62
     0
 10
18.6201
 20
52.6175
 30
0.0
 11
19.4193
 21
52.6175
 31
0.0
  0
LINE
  8
0
 62
     0
 10
19.4193
 20
52.6175
 30
0.0
 11
19.4193
 21
55.7181
 31
0.0
  0
LINE
  8
0
 62
     0
 10
19.4193
 20
55.7181
 30
0.0
 11
18.6201
 21
55.7181
 31
0.0
  0
LINE
  8
0
 62
     0
 10
18.6201
 20
55.7181
 30
0.0
 11
18.6201
 21
56.7186
 31
0.0
  0
LINE
  8
0
 62
     0
 10
18.6201
 20
56.7186
 30
0.0
 11
4.6192
 21
56.7186
 31
0.0
  0
LINE
  8
0
 62
     0
 10
23.6692
 20
56.7186
 30
0.0
 11
23.6692
 21
55.7181
 31
0.0
  0
LINE
  8
0
 62
     0
 10
23.6692
 20
55.7181
 30
0.0
 11
22.8699
 21
55.7181
 31
0.0
  0
LINE
  8
0
 62
     0
 10
22.8699
 20
55.7181
 30
0.0
 11
22.8699
 21
52.6175
 31
0.0
  0
LINE
  8
0
 62
     0
 10
22.8699
 20
52.6175
 30
0.0
 11
23.6692
 21
52.6175
 31
0.0
  0
LINE
  8
0
 62
     0
 10
23.6692
 20
52.6175
 30
0.0
 11
23.6692
 21
46.8175
 31
0.0
  0
LINE
  8
0
 62
     0
 10
23.6692
 20
46.8175
 30
0.0
 11
22.8699
 21
46.8175
 31
0.0
  0
LINE
  8
0
 62
     0
 10
22.8699
 20
46.8175
 30
0.0
 11
22.8699
 21
43.7183
 31
0.0
  0
LINE
  8
0
 62
     0
 10
22.8699
 20
43.7183
 30
0.0
 11
23.6692
 21
43.7183
 31
0.0
  0
LINE
  8
0
 62
     0
 10
23.6692
 20
43.7183
 30
0.0
 11
23.6692
 21
42.7179
 31
0.0
  0
LINE
  8
0
 62
     0
 10
23.6692
 20
42.7179
 30
0.0
 11
37.67
 21
42.7179
 31
0.0
  0
LINE
  8
0
 62
     0
 10
37.67
 20
42.7179
 30
0.0
 11
37.67
 21
43.7183
 31
0.0
  0
LINE
  8
0
 62
     0
 10
37.67
 20
43.7183
 30
0.0
 11
38.4694
 21
43.7183
 31
0.0
  0
LINE
  8
0
 62
     0
 10
38.4694
 20
43.7183
 30
0.0
 11
38.4694
 21
46.8175
 31
0.0
  0
LINE
  8
0
 62
     0
 10
38.4694
 20
46.8175
 30
0.0
 11
37.67
 21
46.8175
 31
0.0
  0
LINE
  8
0
 62
     0
 10
37.67
 20
46.8175
 30
0.0
 11
37.67
 21
52.6175
 31
0.0
  0
LINE
  8
0
 62
     0
 10
37.67
 20
52.6175
 30
0.0
 11
38.4694
 21
52.6175
 31
0.0
  0
LINE
  8
0
 62
     0
 10
38.4694
 20
52.6175
 30
0.0
 11
38.4694
 21
55.7181
 31
0.0
  0
LINE
  8
0
 62
     0
 10
38.4694
 20
55.7181
 30
0.0
 11
37.67
 21
55.7181
 31
0.0
  0
LINE
  8
0
 62
     0
 10
37.67
 20
55.7181
 30
0.0
 11
37.67
 21
56.7186
 31
0.0
  0
LINE
  8
0
 62
     0
 10
37.67
 20
56.7186
 30
0.0
 11
23.6692
 21
56.7186
 31
0.0
  0
LINE
  8
0
 62
     0
 10
42.7193
 20
56.7186
 30
0.0
 11
42.7193
 21
55.7181
 31
0.0
  0
LINE
  8
0
 62
     0
 10
42.7193
 20
55.7181
 30
0.0
 11
41.9199
 21
55.7181
 31
0.0
  0
LINE
  8
0
 62
     0
 10
41.9199
 20
55.7181
 30
0.0
 11
41.9199
 21
52.6175
 31
0.0
  0
LINE
  8
0
 62
     0
 10
41.9199
 20
52.6175
 30
0.0
 11
42.7193
 21
52.6175
 31
0.0
  0
LINE
  8
0
 62
     0
 10
42.7193
 20
52.6175
 30
0.0
 11
42.7193
 21
46.8175
 31
0.0
  0
LINE
  8
0
 62
     0
 10
42.7193
 20
46.8175
 30
0.0
 11
41.9199
 21
46.8175
 31
0.0
  0
LINE
  8
0
 62
     0
 10
41.9199
 20
46.8175
 30
0.0
 11
41.9199
 21
43.7183
 31
0.0
  0
LINE
  8
0
 62
     0
 10
41.9199
 20
43.7183
 30
0.0
 11
42.7193
 21
43.7183
 31
0.0
  0
LINE
  8
0
 62
     0
 10
42.7193
 20
43.7183
 30
0.0
 11
42.7193
 21
42.7179
 31
0.0
  0
LINE
  8
0
 62
     0
 10
42.7193
 20
42.7179
 30
0.0
 11
56.72
 21
42.7179
 31
0.0
  0
LINE
  8
0
 62
     0
 10
56.72
 20
42.7179
 30
0.0
 11
56.72
 21
43.7183
 31
0.0
  0
LINE
  8
0
 62
     0
 10
56.72
 20
43.7183
 30
0.0
 11
57.5194
 21
43.7183
 31
0.0
  0
LINE
  8
0
 62
     0
 10
57.5194
 20
43.7183
 30
0.0
 11
57.5194
 21
46.8175
 31
0.0
  0
LINE
  8
0
 62
     0
 10
57.5194
 20
46.8175
 30
0.0
 11
56.72
 21
46.8175
 31
0.0
  0
LINE
  8
0
 62
     0
 10
56.72
 20
46.8175
 30
0.0
 11
56.72
 21
52.6175
 31
0.0
  0
LINE
  8
0
 62
     0
 10
56.72
 20
52.6175
 30
0.0
 11
57.5194
 21
52.6175
 31
0.0
  0
LINE
  8
0
 62
     0
 10
57.5194
 20
52.6175
 30
0.0
 11
57.5194
 21
55.7181
 31
0.0
  0
LINE
  8
0
 62
     0
 10
57.5194
 20
55.7181
 30
0.0
 11
56.72
 21
55.7181
 31
0.0
  0
LINE
  8
0
 62
     0
 10
56.72
 20
55.7181
 30
0.0
 11
56.72
 21
56.7186
 31
0.0
  0
LINE
  8
0
 62
     0
 10
56.72
 20
56.7186
 30
0.0
 11
42.7193
 21
56.7186
 31
0.0
  0
LINE
  8
0
 62
     0
 10
61.7693
 20
56.7186
 30
0.0
 11
61.7693
 21
55.7181
 31
0.0
  0
LINE
  8
0
 62
     0
 10
61.7693
 20
55.7181
 30
0.0
 11
60.9699
 21
55.7181
 31
0.0
  0
LINE
  8
0
 62
     0
 10
60.9699
 20
55.7181
 30
0.0
 11
60.9699
 21
52.6175
 31
0.0
  0
LINE
  8
0
 62
     0
 10
60.9699
 20
52.6175
 30
0.0
 11
61.7693
 21
52.6175
 31
0.0
  0
LINE
  8
0
 62
     0
 10
61.7693
 20
52.6175
 30
0.0
 11
61.7693
 21
46.8175
 31
0.0
  0
LINE
  8
0
 62
     0
 10
61.7693
 20
46.8175
 30
0.0
 11
60.9699
 21
46.8175
 31
0.0
  0
LINE
  8
0
 62
     0
 10
60.9699
 20
46.8175
 30
0.0
 11
60.9699
 21
43.7183
 31
0.0
  0
LINE
  8
0
 62
     0
 10
60.9699
 20
43.7183
 30
0.0
 11
61.7693
 21
43.7183
 31
0.0
  0
LINE
  8
0
 62
     0
 10
61.7693
 20
43.7183
 30
0.0
 11
61.7693
 21
42.7179
 31
0.0
  0
LINE
  8
0
 62
     0
 10
61.7693
 20
42.7179
 30
0.0
 11
75.77
 21
42.7179
 31
0.0
  0
LINE
  8
0
 62
     0
 10
75.77
 20
42.7179
 30
0.0
 11
75.77
 21
43.7183
 31
0.0
  0
LINE
  8
0
 62
     0
 10
75.77
 20
43.7183
 30
0.0
 11
76.5694
 21
43.7183
 31
0.0
  0
LINE
  8
0
 62
     0
 10
76.5694
 20
43.7183
 30
0.0
 11
76.5694
 21
46.8175
 31
0.0
  0
LINE
  8
0
 62
     0
 10
76.5694
 20
46.8175
 30
0.0
 11
75.77
 21
46.8175
 31
0.0
  0
LINE
  8
0
 62
     0
 10
75.77
 20
46.8175
 30
0.0
 11
75.77
 21
52.6175
 31
0.0
  0
LINE
  8
0
 62
     0
 10
75.77
 20
52.6175
 30
0.0
 11
76.5694
 21
52.6175
 31
0.0
  0
LINE
  8
0
 62
     0
 10
76.5694
 20
52.6175
 30
0.0
 11
76.5694
 21
55.7181
 31
0.0
  0
LINE
  8
0
 62
     0
 10
76.5694
 20
55.7181
 30
0.0
 11
75.77
 21
55.7181
 31
0.0
  0
LINE
  8
0
 62
     0
 10
75.77
 20
55.7181
 30
0.0
 11
75.77
 21
56.7186
 31
0.0
  0
LINE
  8
0
 62
     0
 10
75.77
 20
56.7186
 30
0.0
 11
61.7693
 21
56.7186
 31
0.0
  0
LINE
  8
0
 62
     0
 10
80.8193
 20
56.7186
 30
0.0
 11
80.8193
 21
55.7181
 31
0.0
  0
LINE
  8
0
 62
     0
 10
80.8193
 20
55.7181
 30
0.0
 11
80.0199
 21
55.7181
 31
0.0
  0
LINE
  8
0
 62
     0
 10
80.0199
 20
55.7181
 30
0.0
 11
80.0199
 21
52.6175
 31
0.0
  0
LINE
  8
0
 62
     0
 10
80.0199
 20
52.6175
 30
0.0
 11
80.8193
 21
52.6175
 31
0.0
  0
LINE
  8
0
 62
     0
 10
80.8193
 20
52.6175
 30
0.0
 11
80.8193
 21
46.8175
 31
0.0
  0
LINE
  8
0
 62
     0
 10
80.8193
 20
46.8175
 30
0.0
 11
80.0199
 21
46.8175
 31
0.0
  0
LINE
  8
0
 62
     0
 10
80.0199
 20
46.8175
 30
0.0
 11
80.0199
 21
43.7183
 31
0.0
  0
LINE
  8
0
 62
     0
 10
80.0199
 20
43.7183
 30
0.0
 11
80.8193
 21
43.7183
 31
0.0
  0
LINE
  8
0
 62
     0
 10
80.8193
 20
43.7183
 30
0.0
 11
80.8193
 21
42.7179
 31
0.0
  0
LINE
  8
0
 62
     0
 10
80.8193
 20
42.7179
 30
0.0
 11
94.82
 21
42.7179
 31
0.0
  0
LINE
  8
0
 62
     0
 10
94.82
 20
42.7179
 30
0.0
 11
94.82
 21
43.7183
 31
0.0
  0
LINE
  8
0
 62
     0
 10
94.82
 20
43.7183
 30
0.0
 11
95.6194
 21
43.7183
 31
0.0
  0
LINE
  8
0
 62
     0
 10
95.6194
 20
43.7183
 30
0.0
 11
95.6194
 21
46.8175
 31
0.0
  0
LINE
  8
0
 62
     0
 10
95.6194
 20
46.8175
 30
0.0
 11
94.82
 21
46.8175
 31
0.0
  0
LINE
  8
0
 62
     0
 10
94.82
 20
46.8175
 30
0.0
 11
94.82
 21
52.6175
 31
0.0
  0
LINE
  8
0
 62
     0
 10
94.82
 20
52.6175
 30
0.0
 11
95.6194
 21
52.6175
 31
0.0
  0
LINE
  8
0
 62
     0
 10
95.6194
 20
52.6175
 30
0.0
 11
95.6194
 21
55.7181
 31
0.0
  0
LINE
  8
0
 62
     0
 10
95.6194
 20
55.7181
 30
0.0
 11
94.82
 21
55.7181
 31
0.0
  0
LINE
  8
0
 62
     0
 10
94.82
 20
55.7181
 30
0.0
 11
94.82
 21
56.7186
 31
0.0
  0
LINE
  8
0
 62
     0
 10
94.82
 20
56.7186
 30
0.0
 11
80.8193
 21
56.7186
 31
0.0
  0
LINE
  8
0
 62
     0
 10
4.6192
 20
75.7686
 30
0.0
 11
4.6192
 21
74.7681
 31
0.0
  0
LINE
  8
0
 62
     0
 10
4.6192
 20
74.7681
 30
0.0
 11
3.81854
 21
74.7681
 31
0.0
  0
LINE
  8
0
 62
     0
 10
3.81854
 20
74.7681
 30
0.0
 11
3.81854
 21
71.6689
 31
0.0
  0
LINE
  8
0
 62
     0
 10
3.81854
 20
71.6689
 30
0.0
 11
4.6192
 21
71.6689
 31
0.0
  0
LINE
  8
0
 62
     0
 10
4.6192
 20
71.6689
 30
0.0
 11
4.6192
 21
65.8675
 31
0.0
  0
LINE
  8
0
 62
     0
 10
4.6192
 20
65.8675
 30
0.0
 11
3.81854
 21
65.8675
 31
0.0
  0
LINE
  8
0
 62
     0
 10
3.81854
 20
65.8675
 30
0.0
 11
3.81854
 21
62.7683
 31
0.0
  0
LINE
  8
0
 62
     0
 10
3.81854
 20
62.7683
 30
0.0
 11
4.6192
 21
62.7683
 31
0.0
  0
LINE
  8
0
 62
     0
 10
4.6192
 20
62.7683
 30
0.0
 11
4.6192
 21
61.7679
 31
0.0
  0
LINE
  8
0
 62
     0
 10
4.6192
 20
61.7679
 30
0.0
 11
18.6201
 21
61.7679
 31
0.0
  0
LINE
  8
0
 62
     0
 10
18.6201
 20
61.7679
 30
0.0
 11
18.6201
 21
62.7683
 31
0.0
  0
LINE
  8
0
 62
     0
 10
18.6201
 20
62.7683
 30
0.0
 11
19.4193
 21
62.7683
 31
0.0
  0
LINE
  8
0
 62
     0
 10
19.4193
 20
62.7683
 30
0.0
 11
19.4193
 21
65.8675
 31
0.0
  0
LINE
  8
0
 62
     0
 10
19.4193
 20
65.8675
 30
0.0
 11
18.6201
 21
65.8675
 31
0.0
  0
LINE
  8
0
 62
     0
 10
18.6201
 20
65.8675
 30
0.0
 11
18.6201
 21
71.6689
 31
0.0
  0
LINE
  8
0
 62
     0
 10
18.6201
 20
71.6689
 30
0.0
 11
19.4193
 21
71.6689
 31
0.0
  0
LINE
  8
0
 62
     0
 10
19.4193
 20
71.6689
 30
0.0
 11
19.4193
 21
74.7681
 31
0.0
  0
LINE
  8
0
 62
     0
 10
19.4193
 20
74.7681
 30
0.0
 11
18.6201
 21
74.7681
 31
0.0
  0
LINE
  8
0
 62
     0
 10
18.6201
 20
74.7681
 30
0.0
 11
18.6201
 21
75.7686
 31
0.0
  0
LINE
  8
0
 62
     0
 10
18.6201
 20
75.7686
 30
0.0
 11
4.6192
 21
75.7686
 31
0.0
  0
LINE
  8
0
 62
     0
 10
23.6692
 20
75.7686
 30
0.0
 11
23.6692
 21
74.7681
 31
0.0
  0
LINE
  8
0
 62
     0
 10
23.6692
 20
74.7681
 30
0.0
 11
22.8699
 21
74.7681
 31
0.0
  0
LINE
  8
0
 62
     0
 10
22.8699
 20
74.7681
 30
0.0
 11
22.8699
 21
71.6689
 31
0.0
  0
LINE
  8
0
 62
     0
 10
22.8699
 20
71.6689
 30
0.0
 11
23.6692
 21
71.6689
 31
0.0
  0
LINE
  8
0
 62
     0
 10
23.6692
 20
71.6689
 30
0.0
 11
23.6692
 21
65.8675
 31
0.0
  0
LINE
  8
0
 62
     0
 10
23.6692
 20
65.8675
 30
0.0
 11
22.8699
 21
65.8675
 31
0.0
  0
LINE
  8
0
 62
     0
 10
22.8699
 20
65.8675
 30
0.0
 11
22.8699
 21
62.7683
 31
0.0
  0
LINE
  8
0
 62
     0
 10
22.8699
 20
62.7683
 30
0.0
 11
23.6692
 21
62.7683
 31
0.0
  0
LINE
  8
0
 62
     0
 10
23.6692
 20
62.7683
 30
0.0
 11
23.6692
 21
61.7679
 31
0.0
  0
LINE
  8
0
 62
     0
 10
23.6692
 20
61.7679
 30
0.0
 11
37.67
 21
61.7679
 31
0.0
  0
LINE
  8
0
 62
     0
 10
37.67
 20
61.7679
 30
0.0
 11
37.67
 21
62.7683
 31
0.0
  0
LINE
  8
0
 62
     0
 10
37.67
 20
62.7683
 30
0.0
 11
38.4694
 21
62.7683
 31
0.0
  0
LINE
  8
0
 62
     0
 10
38.4694
 20
62.7683
 30
0.0
 11
38.4694
 21
65.8675
 31
0.0
  0
LINE
  8
0
 62
     0
 10
38.4694
 20
65.8675
 30
0.0
 11
37.67
 21
65.8675
 31
0.0
  0
LINE
  8
0
 62
     0
 10
37.67
 20
65.8675
 30
0.0
 11
37.67
 21
71.6689
 31
0.0
  0
LINE
  8
0
 62
     0
 10
37.67
 20
71.6689
 30
0.0
 11
38.4694
 21
71.6689
 31
0.0
  0
LINE
  8
0
 62
     0
 10
38.4694
 20
71.6689
 30
0.0
 11
38.4694
 21
74.7681
 31
0.0
  0
LINE
  8
0
 62
     0
 10
38.4694
 20
74.7681
 30
0.0
 11
37.67
 21
74.7681
 31
0.0
  0
LINE
  8
0
 62
     0
 10
37.67
 20
74.7681
 30
0.0
 11
37.67
 21
75.7686
 31
0.0
  0
LINE
  8
0
 62
     0
 10
37.67
 20
75.7686
 30
0.0
 11
23.6692
 21
75.7686
 31
0.0
  0
LINE
  8
0
 62
     0
 10
42.7193
 20
75.7686
 30
0.0
 11
42.7193
 21
74.7681
 31
0.0
  0
LINE
  8
0
 62
     0
 10
42.7193
 20
74.7681
 30
0.0
 11
41.9199
 21
74.7681
 31
0.0
  0
LINE
  8
0
 62
     0
 10
41.9199
 20
74.7681
 30
0.0
 11
41.9199
 21
71.6689
 31
0.0
  0
LINE
  8
0
 62
     0
 10
41.9199
 20
71.6689
 30
0.0
 11
42.7193
 21
71.6689
 31
0.0
  0
LINE
  8
0
 62
     0
 10
42.7193
 20
71.6689
 30
0.0
 11
42.7193
 21
65.8675
 31
0.0
  0
LINE
  8
0
 62
     0
 10
42.7193
 20
65.8675
 30
0.0
 11
41.9199
 21
65.8675
 31
0.0
  0
LINE
  8
0
 62
     0
 10
41.9199
 20
65.8675
 30
0.0
 11
41.9199
 21
62.7683
 31
0.0
  0
LINE
  8
0
 62
     0
 10
41.9199
 20
62.7683
 30
0.0
 11
42.7193
 21
62.7683
 31
0.0
  0
LINE
  8
0
 62
     0
 10
42.7193
 20
62.7683
 30
0.0
 11
42.7193
 21
61.7679
 31
0.0
  0
LINE
  8
0
 62
     0
 10
42.7193
 20
61.7679
 30
0.0
 11
56.72
 21
61.7679
 31
0.0
  0
LINE
  8
0
 62
     0
 10
56.72
 20
61.7679
 30
0.0
 11
56.72
 21
62.7683
 31
0.0
  0
LINE
  8
0
 62
     0
 10
56.72
 20
62.7683
 30
0.0
 11
57.5194
 21
62.7683
 31
0.0
  0
LINE
  8
0
 62
     0
 10
57.5194
 20
62.7683
 30
0.0
 11
57.5194
 21
65.8675
 31
0.0
  0
LINE
  8
0
 62
     0
 10
57.5194
 20
65.8675
 30
0.0
 11
56.72
 21
65.8675
 31
0.0
  0
LINE
  8
0
 62
     0
 10
56.72
 20
65.8675
 30
0.0
 11
56.72
 21
71.6689
 31
0.0
  0
LINE
  8
0
 62
     0
 10
56.72
 20
71.6689
 30
0.0
 11
57.5194
 21
71.6689
 31
0.0
  0
LINE
  8
0
 62
     0
 10
57.5194
 20
71.6689
 30
0.0
 11
57.5194
 21
74.7681
 31
0.0
  0
LINE
  8
0
 62
     0
 10
57.5194
 20
74.7681
 30
0.0
 11
56.72
 21
74.7681
 31
0.0
  0
LINE
  8
0
 62
     0
 10
56.72
 20
74.7681
 30
0.0
 11
56.72
 21
75.7686
 31
0.0
  0
LINE
  8
0
 62
     0
 10
56.72
 20
75.7686
 30
0.0
 11
42.7193
 21
75.7686
 31
0.0
  0
LINE
  8
0
 62
     0
 10
61.7693
 20
75.7686
 30
0.0
 11
61.7693
 21
74.7681
 31
0.0
  0
LINE
  8
0
 62
     0
 10
61.7693
 20
74.7681
 30
0.0
 11
60.9699
 21
74.7681
 31
0.0
  0
LINE
  8
0
 62
     0
 10
60.9699
 20
74.7681
 30
0.0
 11
60.9699
 21
71.6689
 31
0.0
  0
LINE
  8
0
 62
     0
 10
60.9699
 20
71.6689
 30
0.0
 11
61.7693
 21
71.6689
 31
0.0
  0
LINE
  8
0
 62
     0
 10
61.7693
 20
71.6689
 30
0.0
 11
61.7693
 21
65.8675
 31
0.0
  0
LINE
  8
0
 62
     0
 10
61.7693
 20
65.8675
 30
0.0
 11
60.9699
 21
65.8675
 31
0.0
  0
LINE
  8
0
 62
     0
 10
60.9699
 20
65.8675
 30
0.0
 11
60.9699
 21
62.7683
 31
0.0
  0
LINE
  8
0
 62
     0
 10
60.9699
 20
62.7683
 30
0.0
 11
61.7693
 21
62.7683
 31
0.0
  0
LINE
  8
0
 62
     0
 10
61.7693
 20
62.7683
 30
0.0
 11
61.7693
 21
61.7679
 31
0.0
  0
LINE
  8
0
 62
     0
 10
61.7693
 20
61.7679
 30
0.0
 11
75.77
 21
61.7679
 31
0.0
  0
LINE
  8
0
 62
     0
 10
75.77
 20
61.7679
 30
0.0
 11
75.77
 21
62.7683
 31
0.0
  0
LINE
  8
0
 62
     0
 10
75.77
 20
62.7683
 30
0.0
 11
76.5694
 21
62.7683
 31
0.0
  0
LINE
  8
0
 62
     0
 10
76.5694
 20
62.7683
 30
0.0
 11
76.5694
 21
65.8675
 31
0.0
  0
LINE
  8
0
 62
     0
 10
76.5694
 20
65.8675
 30
0.0
 11
75.77
 21
65.8675
 31
0.0
  0
LINE
  8
0
 62
     0
 10
75.77
 20
65.8675
 30
0.0
 11
75.77
 21
71.6689
 31
0.0
  0
LINE
  8
0
 62
     0
 10
75.77
 20
71.6689
 30
0.0
 11
76.5694
 21
71.6689
 31
0.0
  0
LINE
  8
0
 62
     0
 10
76.5694
 20
71.6689
 30
0.0
 11
76.5694
 21
74.7681
 31
0.0
  0
LINE
  8
0
 62
     0
 10
76.5694
 20
74.7681
 30
0.0
 11
75.77
 21
74.7681
 31
0.0
  0
LINE
  8
0
 62
     0
 10
75.77
 20
74.7681
 30
0.0
 11
75.77
 21
75.7686
 31
0.0
  0
LINE
  8
0
 62
     0
 10
75.77
 20
75.7686
 30
0.0
 11
61.7693
 21
75.7686
 31
0.0
  0
LINE
  8
0
 62
     0
 10
80.8193
 20
75.7686
 30
0.0
 11
80.8193
 21
74.7681
 31
0.0
  0
LINE
  8
0
 62
     0
 10
80.8193
 20
74.7681
 30
0.0
 11
80.0199
 21
74.7681
 31
0.0
  0
LINE
  8
0
 62
     0
 10
80.0199
 20
74.7681
 30
0.0
 11
80.0199
 21
71.6689
 31
0.0
  0
LINE
  8
0
 62
     0
 10
80.0199
 20
71.6689
 30
0.0
 11
80.8193
 21
71.6689
 31
0.0
  0
LINE
  8
0
 62
     0
 10
80.8193
 20
71.6689
 30
0.0
 11
80.8193
 21
65.8675
 31
0.0
  0
LINE
  8
0
 62
     0
 10
80.8193
 20
65.8675
 30
0.0
 11
80.0199
 21
65.8675
 31
0.0
  0
LINE
  8
0
 62
     0
 10
80.0199
 20
65.8675
 30
0.0
 11
80.0199
 21
62.7683
 31
0.0
  0
LINE
  8
0
 62
     0
 10
80.0199
 20
62.7683
 30
0.0
 11
80.8193
 21
62.7683
 31
0.0
  0
LINE
  8
0
 62
     0
 10
80.8193
 20
62.7683
 30
0.0
 11
80.8193
 21
61.7679
 31
0.0
  0
LINE
  8
0
 62
     0
 10
80.8193
 20
61.7679
 30
0.0
 11
94.82
 21
61.7679
 31
0.0
  0
LINE
  8
0
 62
     0
 10
94.82
 20
61.7679
 30
0.0
 11
94.82
 21
62.7683
 31
0.0
  0
LINE
  8
0
 62
     0
 10
94.82
 20
62.7683
 30
0.0
 11
95.6194
 21
62.7683
 31
0.0
  0
LINE
  8
0
 62
     0
 10
95.6194
 20
62.7683
 30
0.0
 11
95.6194
 21
65.8675
 31
0.0
  0
LINE
  8
0
 62
     0
 10
95.6194
 20
65.8675
 30
0.0
 11
94.82
 21
65.8675
 31
0.0
  0
LINE
  8
0
 62
     0
 10
94.82
 20
65.8675
 30
0.0
 11
94.82
 21
71.6689
 31
0.0
  0
LINE
  8
0
 62
     0
 10
94.82
 20
71.6689
 30
0.0
 11
95.6194
 21
71.6689
 31
0.0
  0
LINE
  8
0
 62
     0
 10
95.6194
 20
71.6689
 30
0.0
 11
95.6194
 21
74.7681
 31
0.0
  0
LINE
  8
0
 62
     0
 10
95.6194
 20
74.7681
 30
0.0
 11
94.82
 21
74.7681
 31
0.0
  0
LINE
  8
0
 62
     0
 10
94.82
 20
74.7681
 30
0.0
 11
94.82
 21
75.7686
 31
0.0
  0
LINE
  8
0
 62
     0
 10
94.82
 20
75.7686
 30
0.0
 11
80.8193
 21
75.7686
 31
0.0
  0
LINE
  8
0
 62
     0
 10
4.6192
 20
94.8186
 30
0.0
 11
4.6192
 21
93.8195
 31
0.0
  0
LINE
  8
0
 62
     0
 10
4.6192
 20
93.8195
 30
0.0
 11
3.81854
 21
93.8195
 31
0.0
  0
LINE
  8
0
 62
     0
 10
3.81854
 20
93.8195
 30
0.0
 11
3.81854
 21
90.7189
 31
0.0
  0
LINE
  8
0
 62
     0
 10
3.81854
 20
90.7189
 30
0.0
 11
4.6192
 21
90.7189
 31
0.0
  0
LINE
  8
0
 62
     0
 10
4.6192
 20
90.7189
 30
0.0
 11
4.6192
 21
84.9189
 31
0.0
  0
LINE
  8
0
 62
     0
 10
4.6192
 20
84.9189
 30
0.0
 11
3.81854
 21
84.9189
 31
0.0
  0
LINE
  8
0
 62
     0
 10
3.81854
 20
84.9189
 30
0.0
 11
3.81854
 21
81.8183
 31
0.0
  0
LINE
  8
0
 62
     0
 10
3.81854
 20
81.8183
 30
0.0
 11
4.6192
 21
81.8183
 31
0.0
  0
LINE
  8
0
 62
     0
 10
4.6192
 20
81.8183
 30
0.0
 11
4.6192
 21
80.8179
 31
0.0
  0
LINE
  8
0
 62
     0
 10
4.6192
 20
80.8179
 30
0.0
 11
18.6201
 21
80.8179
 31
0.0
  0
LINE
  8
0
 62
     0
 10
18.6201
 20
80.8179
 30
0.0
 11
18.6201
 21
81.8183
 31
0.0
  0
LINE
  8
0
 62
     0
 10
18.6201
 20
81.8183
 30
0.0
 11
19.4193
 21
81.8183
 31
0.0
  0
LINE
  8
0
 62
     0
 10
19.4193
 20
81.8183
 30
0.0
 11
19.4193
 21
84.9189
 31
0.0
  0
LINE
  8
0
 62
     0
 10
19.4193
 20
84.9189
 30
0.0
 11
18.6201
 21
84.9189
 31
0.0
  0
LINE
  8
0
 62
     0
 10
18.6201
 20
84.9189
 30
0.0
 11
18.6201
 21
90.7189
 31
0.0
  0
LINE
  8
0
 62
     0
 10
18.6201
 20
90.7189
 30
0.0
 11
19.4193
 21
90.7189
 31
0.0
  0
LINE
  8
0
 62
     0
 10
19.4193
 20
90.7189
 30
0.0
 11
19.4193
 21
93.8195
 31
0.0
  0
LINE
  8
0
 62
     0
 10
19.4193
 20
93.8195
 30
0.0
 11
18.6201
 21
93.8195
 31
0.0
  0
LINE
  8
0
 62
     0
 10
18.6201
 20
93.8195
 30
0.0
 11
18.6201
 21
94.8186
 31
0.0
  0
LINE
  8
0
 62
     0
 10
18.6201
 20
94.8186
 30
0.0
 11
4.6192
 21
94.8186
 31
0.0
  0
LINE
  8
0
 62
     0
 10
23.6692
 20
94.8186
 30
0.0
 11
23.6692
 21
93.8195
 31
0.0
  0
LINE
  8
0
 62
     0
 10
23.6692
 20
93.8195
 30
0.0
 11
22.8699
 21
93.8195
 31
0.0
  0
LINE
  8
0
 62
     0
 10
22.8699
 20
93.8195
 30
0.0
 11
22.8699
 21
90.7189
 31
0.0
  0
LINE
  8
0
 62
     0
 10
22.8699
 20
90.7189
 30
0.0
 11
23.6692
 21
90.7189
 31
0.0
  0
LINE
  8
0
 62
     0
 10
23.6692
 20
90.7189
 30
0.0
 11
23.6692
 21
84.9189
 31
0.0
  0
LINE
  8
0
 62
     0
 10
23.6692
 20
84.9189
 30
0.0
 11
22.8699
 21
84.9189
 31
0.0
  0
LINE
  8
0
 62
     0
 10
22.8699
 20
84.9189
 30
0.0
 11
22.8699
 21
81.8183
 31
0.0
  0
LINE
  8
0
 62
     0
 10
22.8699
 20
81.8183
 30
0.0
 11
23.6692
 21
81.8183
 31
0.0
  0
LINE
  8
0
 62
     0
 10
23.6692
 20
81.8183
 30
0.0
 11
23.6692
 21
80.8179
 31
0.0
  0
LINE
  8
0
 62
     0
 10
23.6692
 20
80.8179
 30
0.0
 11
37.67
 21
80.8179
 31
0.0
  0
LINE
  8
0
 62
     0
 10
37.67
 20
80.8179
 30
0.0
 11
37.67
 21
81.8183
 31
0.0
  0
LINE
  8
0
 62
     0
 10
37.67
 20
81.8183
 30
0.0
 11
38.4694
 21
81.8183
 31
0.0
  0
LINE
  8
0
 62
     0
 10
38.4694
 20
81.8183
 30
0.0
 11
38.4694
 21
84.9189
 31
0.0
  0
LINE
  8
0
 62
     0
 10
38.4694
 20
84.9189
 30
0.0
 11
37.67
 21
84.9189
 31
0.0
  0
LINE
  8
0
 62
     0
 10
37.67
 20
84.9189
 30
0.0
 11
37.67
 21
90.7189
 31
0.0
  0
LINE
  8
0
 62
     0
 10
37.67
 20
90.7189
 30
0.0
 11
38.4694
 21
90.7189
 31
0.0
  0
LINE
  8
0
 62
     0
 10
38.4694
 20
90.7189
 30
0.0
 11
38.4694
 21
93.8195
 31
0.0
  0
LINE
  8
0
 62
     0
 10
38.4694
 20
93.8195
 30
0.0
 11
37.67
 21
93.8195
 31
0.0
  0
LINE
  8
0
 62
     0
 10
37.67
 20
93.8195
 30
0.0
 11
37.67
 21
94.8186
 31
0.0
  0
LINE
  8
0
 62
     0
 10
37.67
 20
94.8186
 30
0.0
 11
23.6692
 21
94.8186
 31
0.0
  0
LINE
  8
0
 62
     0
 10
42.7193
 20
94.8186
 30
0.0
 11
42.7193
 21
93.8195
 31
0.0
  0
LINE
  8
0
 62
     0
 10
42.7193
 20
93.8195
 30
0.0
 11
41.9199
 21
93.8195
 31
0.0
  0
LINE
  8
0
 62
     0
 10
41.9199
 20
93.8195
 30
0.0
 11
41.9199
 21
90.7189
 31
0.0
  0
LINE
  8
0
 62
     0
 10
41.9199
 20
90.7189
 30
0.0
 11
42.7193
 21
90.7189
 31
0.0
  0
LINE
  8
0
 62
     0
 10
42.7193
 20
90.7189
 30
0.0
 11
42.7193
 21
84.9189
 31
0.0
  0
LINE
  8
0
 62
     0
 10
42.7193
 20
84.9189
 30
0.0
 11
41.9199
 21
84.9189
 31
0.0
  0
LINE
  8
0
 62
     0
 10
41.9199
 20
84.9189
 30
0.0
 11
41.9199
 21
81.8183
 31
0.0
  0
LINE
  8
0
 62
     0
 10
41.9199
 20
81.8183
 30
0.0
 11
42.7193
 21
81.8183
 31
0.0
  0
LINE
  8
0
 62
     0
 10
42.7193
 20
81.8183
 30
0.0
 11
42.7193
 21
80.8179
 31
0.0
  0
LINE
  8
0
 62
     0
 10
42.7193
 20
80.8179
 30
0.0
 11
56.72
 21
80.8179
 31
0.0
  0
LINE
  8
0
 62
     0
 10
56.72
 20
80.8179
 30
0.0
 11
56.72
 21
81.8183
 31
0.0
  0
LINE
  8
0
 62
     0
 10
56.72
 20
81.8183
 30
0.0
 11
57.5194
 21
81.8183
 31
0.0
  0
LINE
  8
0
 62
     0
 10
57.5194
 20
81.8183
 30
0.0
 11
57.5194
 21
84.9189
 31
0.0
  0
LINE
  8
0
 62
     0
 10
57.5194
 20
84.9189
 30
0.0
 11
56.72
 21
84.9189
 31
0.0
  0
LINE
  8
0
 62
     0
 10
56.72
 20
84.9189
 30
0.0
 11
56.72
 21
90.7189
 31
0.0
  0
LINE
  8
0
 62
     0
 10
56.72
 20
90.7189
 30
0.0
 11
57.5194
 21
90.7189
 31
0.0
  0
LINE
  8
0
 62
     0
 10
57.5194
 20
90.7189
 30
0.0
 11
57.5194
 21
93.8195
 31
0.0
  0
LINE
  8
0
 62
     0
 10
57.5194
 20
93.8195
 30
0.0
 11
56.72
 21
93.8195
 31
0.0
  0
LINE
  8
0
 62
     0
 10
56.72
 20
93.8195
 30
0.0
 11
56.72
 21
94.8186
 31
0.0
  0
LINE
  8
0
 62
     0
 10
56.72
 20
94.8186
 30
0.0
 11
42.7193
 21
94.8186
 31
0.0
  0
LINE
  8
0
 62
     0
 10
61.7693
 20
94.8186
 30
0.0
 11
61.7693
 21
93.8195
 31
0.0
  0
LINE
  8
0
 62
     0
 10
61.7693
 20
93.8195
 30
0.0
 11
60.9699
 21
93.8195
 31
0.0
  0
LINE
  8
0
 62
     0
 10
60.9699
 20
93.8195
 30
0.0
 11
60.9699
 21
90.7189
 31
0.0
  0
LINE
  8
0
 62
     0
 10
60.9699
 20
90.7189
 30
0.0
 11
61.7693
 21
90.7189
 31
0.0
  0
LINE
  8
0
 62
     0
 10
61.7693
 20
90.7189
 30
0.0
 11
61.7693
 21
84.9189
 31
0.0
  0
LINE
  8
0
 62
     0
 10
61.7693
 20
84.9189
 30
0.0
 11
60.9699
 21
84.9189
 31
0.0
  0
LINE
  8
0
 62
     0
 10
60.9699
 20
84.9189
 30
0.0
 11
60.9699
 21
81.8183
 31
0.0
  0
LINE
  8
0
 62
     0
 10
60.9699
 20
81.8183
 30
0.0
 11
61.7693
 21
81.8183
 31
0.0
  0
LINE
  8
0
 62
     0
 10
61.7693
 20
81.8183
 30
0.0
 11
61.7693
 21
80.8179
 31
0.0
  0
LINE
  8
0
 62
     0
 10
61.7693
 20
80.8179
 30
0.0
 11
75.77
 21
80.8179
 31
0.0
  0
LINE
  8
0
 62
     0
 10
75.77
 20
80.8179
 30
0.0
 11
75.77
 21
81.8183
 31
0.0
  0
LINE
  8
0
 62
     0
 10
75.77
 20
81.8183
 30
0.0
 11
76.5694
 21
81.8183
 31
0.0
  0
LINE
  8
0
 62
     0
 10
76.5694
 20
81.8183
 30
0.0
 11
76.5694
 21
84.9189
 31
0.0
  0
LINE
  8
0
 62
     0
 10
76.5694
 20
84.9189
 30
0.0
 11
75.77
 21
84.9189
 31
0.0
  0
LINE
  8
0
 62
     0
 10
75.77
 20
84.9189
 30
0.0
 11
75.77
 21
90.7189
 31
0.0
  0
LINE
  8
0
 62
     0
 10
75.77
 20
90.7189
 30
0.0
 11
76.5694
 21
90.7189
 31
0.0
  0
LINE
  8
0
 62
     0
 10
76.5694
 20
90.7189
 30
0.0
 11
76.5694
 21
93.8195
 31
0.0
  0
LINE
  8
0
 62
     0
 10
76.5694
 20
93.8195
 30
0.0
 11
75.77
 21
93.8195
 31
0.0
  0
LINE
  8
0
 62
     0
 10
75.77
 20
93.8195
 30
0.0
 11
75.77
 21
94.8186
 31
0.0
  0
LINE
  8
0
 62
     0
 10
75.77
 20
94.8186
 30
0.0
 11
61.7693
 21
94.8186
 31
0.0
  0
LINE
  8
0
 62
     0
 10
80.8193
 20
94.8186
 30
0.0
 11
80.8193
 21
93.8195
 31
0.0
  0
LINE
  8
0
 62
     0
 10
80.8193
 20
93.8195
 30
0.0
 11
80.0199
 21
93.8195
 31
0.0
  0
LINE
  8
0
 62
     0
 10
80.0199
 20
93.8195
 30
0.0
 11
80.0199
 21
90.7189
 31
0.0
  0
LINE
  8
0
 62
     0
 10
80.0199
 20
90.7189
 30
0.0
 11
80.8193
 21
90.7189
 31
0.0
  0
LINE
  8
0
 62
     0
 10
80.8193
 20
90.7189
 30
0.0
 11
80.8193
 21
84.9189
 31
0.0
  0
LINE
  8
0
 62
     0
 10
80.8193
 20
84.9189
 30
0.0
 11
80.0199
 21
84.9189
 31
0.0
  0
LINE
  8
0
 62
     0
 10
80.0199
 20
84.9189
 30
0.0
 11
80.0199
 21
81.8183
 31
0.0
  0
LINE
  8
0
 62
     0
 10
80.0199
 20
81.8183
 30
0.0
 11
80.8193
 21
81.8183
 31
0.0
  0
LINE
  8
0
 62
     0
 10
80.8193
 20
81.8183
 30
0.0
 11
80.8193
 21
80.8179
 31
0.0
  0
LINE
  8
0
 62
     0
 10
80.8193
 20
80.8179
 30
0.0
 11
94.82
 21
80.8179
 31
0.0
  0
LINE
  8
0
 62
     0
 10
94.82
 20
80.8179
 30
0.0
 11
94.82
 21
81.8183
 31
0.0
  0
LINE
  8
0
 62
     0
 10
94.82
 20
81.8183
 30
0.0
 11
95.6194
 21
81.8183
 31
0.0
  0
LINE
  8
0
 62
     0
 10
95.6194
 20
81.8183
 30
0.0
 11
95.6194
 21
84.9189
 31
0.0
  0
LINE
  8
0
 62
     0
 10
95.6194
 20
84.9189
 30
0.0
 11
94.82
 21
84.9189
 31
0.0
  0
LINE
  8
0
 62
     0
 10
94.82
 20
84.9189
 30
0.0
 11
94.82
 21
90.7189
 31
0.0
  0
LINE
  8
0
 62
     0
 10
94.82
 20
90.7189
 30
0.0
 11
95.6194
 21
90.7189
 31
0.0
  0
LINE
  8
0
 62
     0
 10
95.6194
 20
90.7189
 30
0.0
 11
95.6194
 21
93.8195
 31
0.0
  0
LINE
  8
0
 62
     0
 10
95.6194
 20
93.8195
 30
0.0
 11
94.82
 21
93.8195
 31
0.0
  0
LINE
  8
0
 62
     0
 10
94.82
 20
93.8195
 30
0.0
 11
94.82
 21
94.8186
 31
0.0
  0
LINE
  8
0
 62
     0
 10
94.82
 20
94.8186
 30
0.0
 11
80.8193
 21
94.8186
 31
0.0
  0
ENDSEC
  0
EOF
